<svg width="800" height="800" viewBox="0 0 800 800" fill="none" xmlns="http://www.w3.org/2000/svg">
<g clip-path="url(#clip0_1_142)">
<path d="M539.32 538.806C557.326 520.8 571.469 499.816 581.361 476.431C591.616 452.184 596.817 426.469 596.817 399.999C596.817 373.529 591.616 347.814 581.361 323.567C571.469 300.183 557.326 279.196 539.32 261.193C521.317 243.188 500.33 229.044 476.946 219.152C452.699 208.897 426.984 203.696 400.514 203.696C374.047 203.696 348.331 208.897 324.084 219.152C300.699 229.042 279.713 243.188 261.709 261.193C243.704 279.198 229.561 300.183 219.67 323.567C209.413 347.814 204.214 373.531 204.214 399.999C204.214 426.468 209.413 452.184 219.67 476.431C229.561 499.816 243.706 520.8 261.709 538.806C279.713 556.811 300.699 570.954 324.084 580.844C348.333 591.101 374.047 596.302 400.514 596.302C426.984 596.302 452.699 591.101 476.946 580.844C500.33 570.956 521.317 556.812 539.32 538.806ZM400.514 275.777C469.122 275.777 524.738 331.393 524.738 399.999C524.738 468.604 469.122 524.221 400.514 524.221C331.909 524.221 276.294 468.604 276.294 399.999C276.292 331.394 331.909 275.777 400.514 275.777Z" fill="#2C2D2D"/>
<path d="M400.514 597.143C373.934 597.143 348.109 591.921 323.755 581.62C300.27 571.688 279.194 557.482 261.114 539.4C243.031 521.317 228.827 500.241 218.895 476.758C208.594 452.408 203.371 426.582 203.371 399.999C203.371 373.416 208.594 347.591 218.895 323.239C228.829 299.754 243.033 278.678 261.114 260.597C279.194 242.515 300.27 228.31 323.755 218.377C348.109 208.076 373.934 202.853 400.514 202.853C427.095 202.853 452.922 208.076 477.274 218.377C500.761 228.31 521.837 242.515 539.916 260.597C557.997 278.678 572.201 299.752 582.138 323.239C592.437 347.592 597.66 373.416 597.66 399.999C597.66 426.58 592.437 452.404 582.138 476.758C572.204 500.243 557.999 521.317 539.916 539.4C521.835 557.482 500.761 571.686 477.274 581.62C452.922 591.921 427.095 597.143 400.514 597.143ZM400.514 204.537C374.16 204.537 348.556 209.715 324.412 219.926C301.127 229.776 280.231 243.859 262.303 261.787C244.375 279.714 230.292 300.61 220.444 323.895C210.233 348.038 205.056 373.642 205.056 399.999C205.056 426.357 210.233 451.962 220.444 476.103C230.292 499.385 244.375 520.281 262.303 538.21C280.231 556.138 301.127 570.221 324.412 580.069C348.556 590.282 374.16 595.459 400.514 595.459C426.871 595.459 452.475 590.282 476.62 580.069C499.905 570.221 520.8 556.138 538.726 538.21C556.654 520.282 570.739 499.387 580.587 476.103C590.798 451.957 595.976 426.353 595.976 399.999C595.976 373.643 590.798 348.04 580.587 323.895C570.737 300.61 556.652 279.714 538.726 261.787C520.8 243.859 499.905 229.776 476.62 219.926C452.475 209.716 426.868 204.537 400.514 204.537ZM400.514 525.064C331.554 525.064 275.452 468.961 275.452 400.001C275.452 331.041 331.554 274.938 400.514 274.938C469.475 274.938 525.579 331.041 525.579 400.001C525.579 468.961 469.474 525.064 400.514 525.064ZM400.514 276.618C332.483 276.618 277.135 331.968 277.135 399.999C277.135 468.03 332.483 523.38 400.514 523.38C468.547 523.38 523.896 468.03 523.896 399.999C523.896 331.968 468.547 276.618 400.514 276.618Z" fill="#2C2D2D"/>
<path d="M401.636 635.317C381.785 635.317 365.661 651.379 365.598 671.247L365.311 763.006C365.248 782.91 381.335 799.095 401.239 799.157C401.278 799.157 401.315 799.157 401.354 799.157C421.206 799.157 437.33 783.095 437.392 763.228L437.68 671.469C437.742 651.564 421.657 635.378 401.751 635.317C401.712 635.317 401.673 635.317 401.636 635.317Z" fill="#2C2D2D"/>
<path d="M401.354 799.998H401.239C391.384 799.966 382.135 796.103 375.191 789.114C368.248 782.128 364.44 772.854 364.47 763L364.756 671.242C364.822 650.969 381.365 634.475 401.636 634.475C411.605 634.505 420.856 638.368 427.8 645.357C434.746 652.345 438.553 661.619 438.521 671.472L438.234 763.231C438.17 783.504 421.625 799.998 401.354 799.998ZM401.747 636.159C382.288 636.159 366.499 651.899 366.437 671.249L366.151 763.007C366.121 772.409 369.755 781.26 376.383 787.929C383.01 794.597 391.839 798.285 401.241 798.316L401.354 799.157V798.316C420.701 798.316 436.491 782.575 436.551 763.226L436.839 671.467C436.869 662.065 433.233 653.215 426.607 646.545C419.978 639.876 411.15 636.186 401.747 636.159Z" fill="#2C2D2D"/>
<path d="M399.383 164.683C399.481 164.683 399.582 164.683 399.681 164.683C419.586 164.521 435.589 148.256 435.43 128.351L434.688 36.5924C434.527 16.6877 418.283 0.703314 398.357 0.84465C378.452 1.00618 362.448 17.2715 362.609 37.1746L363.351 128.935C363.511 148.74 379.613 164.683 399.383 164.683Z" fill="#2C2D2D"/>
<path d="M399.383 165.524C379.214 165.524 362.673 149.114 362.508 128.94L361.766 37.1796C361.687 27.3299 365.448 18.0371 372.356 11.0141C379.265 3.99104 388.497 0.0807589 398.348 0.00167847H398.618C418.807 0.00167847 435.366 16.4117 435.53 36.5857L436.272 128.344C436.435 148.68 420.023 165.359 399.688 165.524H399.383ZM398.618 1.68424H398.362C388.961 1.75996 380.151 5.49357 373.558 12.1952C366.964 18.8969 363.373 27.7657 363.45 37.1678L364.192 128.928C364.349 148.18 380.136 163.841 399.385 163.841H399.676C419.083 163.683 434.746 147.766 434.589 128.358L433.847 36.5991C433.691 17.3472 417.886 1.68424 398.618 1.68424Z" fill="#2C2D2D"/>
<path d="M36.8801 365.311C17.0292 365.311 0.905182 381.373 0.841245 401.239C0.77899 421.146 16.8643 437.33 36.7707 437.392L128.529 437.68C128.568 437.68 128.605 437.68 128.644 437.68C148.495 437.68 164.62 421.617 164.683 401.751C164.746 381.846 148.66 365.66 128.755 365.597L36.9945 365.31C36.9558 365.311 36.9188 365.311 36.8801 365.311Z" fill="#2C2D2D"/>
<path d="M128.644 438.521H128.529L36.7673 438.234C16.4302 438.17 -0.0639963 421.573 -5.88833e-05 401.236C0.0655611 380.964 16.6085 364.47 36.8801 364.47L128.756 364.758C138.608 364.788 147.859 368.653 154.802 375.641C161.746 382.628 165.554 391.903 165.524 401.756C165.46 422.027 148.915 438.521 128.644 438.521ZM36.9928 366.153C17.5339 366.153 1.74476 381.893 1.6825 401.243C1.62193 420.651 17.3623 436.491 36.7724 436.551L128.531 436.839L128.644 437.68V436.839C147.991 436.839 163.781 421.099 163.841 401.749C163.872 392.349 160.237 383.497 153.61 376.827C146.982 370.157 138.154 366.469 128.753 366.44L36.9928 366.153Z" fill="#2C2D2D"/>
<path d="M799.157 398.355C798.995 378.55 782.893 362.606 763.123 362.606C763.024 362.606 762.925 362.606 762.825 362.608L671.067 363.35C651.162 363.509 635.158 379.776 635.317 399.679C635.479 419.485 651.581 435.429 671.351 435.429C671.45 435.429 671.55 435.429 671.649 435.429L763.408 434.687C783.312 434.527 799.317 418.262 799.157 398.355Z" fill="#2C2D2D"/>
<path d="M671.652 436.272H671.351C651.182 436.272 634.641 419.86 634.476 399.688C634.313 379.352 650.725 362.673 671.06 362.51L763.123 361.766C783.292 361.766 799.833 378.178 799.998 398.35C800.161 418.686 783.75 435.367 763.414 435.53L671.652 436.272ZM763.123 363.447L762.839 363.449L671.074 364.191C651.667 364.347 636.002 380.264 636.159 399.673C636.315 418.925 652.103 434.588 671.351 434.588H671.646L763.401 433.846C782.808 433.687 798.472 417.77 798.316 398.362C798.159 379.11 782.372 363.447 763.123 363.447Z" fill="#2C2D2D"/>
<path d="M144.192 693.758C153.377 693.758 162.566 690.268 169.596 683.281L234.684 618.601C248.802 604.57 248.875 581.751 234.844 567.633C220.814 553.511 197.994 553.441 183.875 567.471L118.787 632.153C104.669 646.182 104.596 669.001 118.627 683.121C125.672 690.211 134.931 693.758 144.192 693.758Z" fill="#2C2D2D"/>
<path d="M144.192 694.599C134.297 694.599 125.006 690.734 118.032 683.715C111.088 676.727 107.279 667.453 107.311 657.6C107.342 647.75 111.207 638.499 118.195 631.555L183.283 566.874C190.241 559.961 199.473 556.153 209.281 556.153C219.176 556.153 228.467 560.019 235.441 567.039C242.385 574.027 246.193 583.299 246.162 593.152C246.13 603.004 242.266 612.255 235.278 619.197L170.19 683.876C163.232 690.793 154 694.599 144.192 694.599ZM209.279 557.837C199.919 557.837 191.107 561.471 184.468 568.069L119.38 632.75C112.71 639.376 109.022 648.206 108.991 657.605C108.961 667.009 112.595 675.859 119.223 682.527C125.881 689.225 134.748 692.915 144.191 692.915C153.551 692.915 162.362 689.281 169.002 682.683L234.09 618.004C240.76 611.376 244.448 602.548 244.478 593.147C244.507 583.745 240.874 574.893 234.246 568.225C227.59 561.527 218.723 557.837 209.279 557.837Z" fill="#2C2D2D"/>
<path d="M617.137 232.968L681.495 167.558C695.456 153.369 695.272 130.552 681.085 116.59C666.894 102.63 644.079 102.815 630.117 117.002L565.757 182.412C551.797 196.601 551.982 219.418 566.169 233.38C573.189 240.287 582.318 243.731 591.445 243.731C600.766 243.731 610.084 240.135 617.137 232.968Z" fill="#2C2D2D"/>
<path d="M591.446 244.572C581.708 244.572 572.523 240.81 565.58 233.981C551.085 219.716 550.895 196.32 565.158 181.823L629.518 116.413C636.507 109.311 645.844 105.399 655.809 105.399C665.546 105.399 674.733 109.161 681.675 115.991C696.169 130.256 696.359 153.652 682.096 168.149L617.738 233.558C610.747 240.66 601.41 244.572 591.446 244.572ZM655.809 107.082C646.3 107.082 637.389 110.815 630.717 117.593L566.358 183.002C552.746 196.836 552.927 219.167 566.76 232.779C573.386 239.299 582.152 242.888 591.446 242.888C600.956 242.888 609.867 239.155 616.538 232.377L680.896 166.968C694.508 153.132 694.328 130.802 680.496 117.191C673.868 110.672 665.102 107.082 655.809 107.082Z" fill="#2C2D2D"/>
<path d="M206.962 245.321C216.147 245.321 225.336 241.831 232.365 234.844C246.484 220.815 246.556 197.994 232.525 183.876L167.844 118.789C153.815 104.669 130.994 104.598 116.876 118.629C102.757 132.658 102.685 155.479 116.716 169.597L181.395 234.684C188.442 241.773 197.701 245.321 206.962 245.321Z" fill="#2C2D2D"/>
<path d="M206.962 246.162C197.067 246.162 187.776 242.298 180.802 235.278L116.12 170.191C109.176 163.204 105.367 153.929 105.399 144.076C105.431 134.225 109.296 124.976 116.284 118.032C123.241 111.118 132.473 107.311 142.281 107.311C152.176 107.311 161.467 111.175 168.441 118.195L233.121 183.283C240.065 190.271 243.874 199.545 243.842 209.397C243.81 219.248 239.945 228.497 232.958 235.441C226.002 242.355 216.77 246.162 206.962 246.162ZM142.281 108.993C132.921 108.993 124.109 112.627 117.47 119.225C110.8 125.852 107.112 134.681 107.082 144.081C107.051 153.482 110.686 162.334 117.313 169.003L181.993 234.09C188.651 240.788 197.518 244.478 206.96 244.478C216.32 244.478 225.132 240.844 231.771 234.246C238.441 227.619 242.129 218.79 242.16 209.39C242.19 199.99 238.556 191.138 231.928 184.468L167.248 119.381C160.592 112.683 151.725 108.993 142.281 108.993Z" fill="#2C2D2D"/>
<path d="M632.44 681.495C639.46 688.402 648.59 691.847 657.716 691.847C667.035 691.847 676.354 688.251 683.407 681.085C697.367 666.894 697.184 644.079 682.996 630.117L617.587 565.759C603.398 551.797 580.582 551.984 566.62 566.171C552.66 580.36 552.843 603.177 567.032 617.137L632.44 681.495Z" fill="#2C2D2D"/>
<path d="M657.716 692.69C647.977 692.69 638.792 688.927 631.85 682.096L566.442 617.738C551.946 603.475 551.756 580.077 566.019 565.582C573.009 558.478 582.347 554.568 592.313 554.568C602.048 554.568 611.235 558.328 618.175 565.16L683.585 629.518C698.079 643.782 698.267 667.18 684.006 681.675C677.018 688.778 667.681 692.69 657.716 692.69ZM592.313 556.25C582.803 556.25 573.89 559.984 567.219 566.761C553.605 580.597 553.787 602.926 567.621 616.538L633.029 680.896C639.655 687.416 648.421 691.007 657.716 691.007C667.225 691.007 676.136 687.273 682.806 680.496C696.418 666.66 696.236 644.331 682.406 630.717L616.996 566.359C610.372 559.839 601.605 556.25 592.313 556.25Z" fill="#2C2D2D"/>
</g>
<defs>
<clipPath id="clip0_1_142">
<rect width="800" height="800" fill="white"/>
</clipPath>
</defs>
</svg>
